<?xml version="1.0" encoding="UTF-8"?>
<svg width="60" height="60" viewBox="0 0 60 60" fill="none" xmlns="http://www.w3.org/2000/svg">
    <circle cx="30" cy="30" r="30" fill="#FFD700" opacity="0.1"/>
    <path d="M30 15C25.858 15 22.5 18.358 22.5 22.5C22.5 26.642 25.858 30 30 30C34.142 30 37.5 26.642 37.5 22.5C37.5 18.358 34.142 15 30 15ZM30 27C27.516 27 25.5 24.984 25.5 22.5C25.5 20.016 27.516 18 30 18C32.484 18 34.5 20.016 34.5 22.5C34.5 24.984 32.484 27 30 27Z" fill="#FFD700"/>
    <path d="M42 31.5H18C16.35 31.5 15 32.85 15 34.5V42C15 43.65 16.35 45 18 45H42C43.65 45 45 43.65 45 42V34.5C45 32.85 43.65 31.5 42 31.5ZM42 42H18V34.5H42V42Z" fill="#FFD700"/>
</svg> 