<?xml version="1.0" encoding="UTF-8"?>
<svg width="60" height="60" viewBox="0 0 60 60" fill="none" xmlns="http://www.w3.org/2000/svg">
    <circle cx="30" cy="30" r="30" fill="#FFD700" opacity="0.1"/>
    <path d="M45 25.5L41.25 21.75L42.75 16.5L37.5 15L34.5 10.5L30 13.5L25.5 10.5L22.5 15L17.25 16.5L18.75 21.75L15 25.5L18.75 29.25L17.25 34.5L22.5 36L25.5 40.5L30 37.5L34.5 40.5L37.5 36L42.75 34.5L41.25 29.25L45 25.5ZM30 33C26.685 33 24 30.315 24 27C24 23.685 26.685 21 30 21C33.315 21 36 23.685 36 27C36 30.315 33.315 33 30 33Z" fill="#FFD700"/>
</svg> 